<?xml version="1.0" encoding="utf-8"?>
<!-- Generator: Adobe Illustrator 15.0.0, SVG Export Plug-In . SVG Version: 6.00 Build 0)  -->
<!DOCTYPE svg PUBLIC "-//W3C//DTD SVG 1.1//EN" "http://www.w3.org/Graphics/SVG/1.1/DTD/svg11.dtd">
<svg version="1.1" id="Layer_1" xmlns="http://www.w3.org/2000/svg" xmlns:xlink="http://www.w3.org/1999/xlink" x="0px" y="0px"
	 width="337.98px" height="341.672px" viewBox="0 0 337.98 341.672" enable-background="new 0 0 337.98 341.672"
	 xml:space="preserve">
<g>
	<path fill="#58595B" d="M109.69,341.672c-4.416,0-8.559-1.712-11.668-4.821L4.825,243.655c-6.433-6.435-6.433-16.901,0-23.335
		l132.84-132.839c5.096-5.096,14.635-8.894,21.854-8.68l84.297,2.464c8.892,0.26,16.336,7.706,16.595,16.596l2.466,84.297
		c0.213,7.298-3.519,16.693-8.681,21.854L121.357,336.852C118.249,339.96,114.105,341.672,109.69,341.672z M158.906,91.792
		c-3.751,0-9.495,2.327-12.049,4.881L14.017,229.513c-1.341,1.341-1.341,3.608,0,4.95l93.197,93.195
		c0.882,0.882,1.929,1.014,2.475,1.014s1.593-0.132,2.475-1.013L245.002,194.82c2.615-2.615,4.986-8.585,4.879-12.282l-2.466-84.297
		c-0.061-2.061-1.921-3.92-3.981-3.981L158.906,91.792z"/>
</g>
<g>
	<circle fill="#F1F1EF" cx="196.22" cy="143.731" r="24.15"/>
	<path fill="#58595B" d="M196.22,174.382c-16.9,0-30.65-13.75-30.65-30.65c0-16.9,13.75-30.65,30.65-30.65s30.65,13.75,30.65,30.65
		C226.871,160.632,213.121,174.382,196.22,174.382z M196.22,126.082c-9.732,0-17.65,7.917-17.65,17.65s7.918,17.65,17.65,17.65
		s17.65-7.918,17.65-17.65S205.953,126.082,196.22,126.082z"/>
</g>
<g>
	<path fill="#58595B" d="M224.379,151.465c-14.855,0-25.242-1.563-25.967-1.676c-3.548-0.549-5.979-3.87-5.43-7.417
		c0.549-3.546,3.864-5.976,7.414-5.43l0,0c0.283,0.043,28.686,4.281,58.196-1.713c38.007-7.721,60.033-28.168,65.468-60.773
		c5.536-33.217-14.659-54.315-35.767-59.861c-22.671-5.957-55.056,3.342-71.714,49.151c-1.227,3.375-4.961,5.112-8.33,3.888
		c-3.373-1.227-5.114-4.957-3.887-8.33c18.39-50.573,57.072-65.208,87.234-57.281c14.874,3.908,27.667,13.088,36.022,25.849
		c9.065,13.843,12.269,30.691,9.263,48.722c-6.336,38.021-32.628,62.725-76.033,71.443
		C247.683,150.68,234.909,151.465,224.379,151.465z"/>
</g>
</svg>
